# xmcd
#
# Track frame offsets:
#	150
#	13999
#	29887
#	48004
#	67668
#	80357
#	95312
#	110436
#	125924
#	143507
#	156802
#	171233
#	183328
#	197289
#	215597
#	231166
#	247638
#	272998
#	294153
#	309909
#	325229
#	338437
#
# Disc length: 4746 seconds
#
# Revision: 1
# Processed by: cddbd v1.5.2PL0 Copyright (c) Steve Scherf et al.
# Submitted via: audiograbber 1.83.01
#
DISCID=27128816
DTITLE=Various Artist - So Country 2016 [Disc 2]
DYEAR=2016
DGENRE=Country
TTITLE0=Kelsea Ballerini - Dibs
TTITLE1=Travis Collins - Curves
TTITLE2=Shane Nicholson - Secondhand Man
TTITLE3=Eric Church - Talladega
TTITLE4=Jake Owen - Real Life
TTITLE5=Maren Morris - My Church
TTITLE6=Easton Corbin - Baby Be My Love Song
TTITLE7=Dylan Scott - Crazy Over Me
TTITLE8=Cam - Burning House
TTITLE9=Tyler Farr - Better In Boots
TTITLE10=David Nail - Night's On Fire
TTITLE11=Drake White - It Feels Good
TTITLE12=Mo Pitney - Boy And A Girl Thing
TTITLE13=Mickey Guyton - Better Than You Left Me
TTITLE14=Jerrod Niemann - Blue Bandana
TTITLE15=Maddie and Tae - Fly
TTITLE16=Brothers Osborne - Stay A Little Longer
TTITLE17=Love And Theft - Whiskey On My Breath
TTITLE18=Old Dominion - Break Up With Him
TTITLE19=Canaan Smith - Love You Like That
TTITLE20=Jess Moskaluke - Kiss Me Quiet
TTITLE21=Jetty Road - I Turn To You
EXTD=
EXTT0=
EXTT1=
EXTT2=
EXTT3=
EXTT4=
EXTT5=
EXTT6=
EXTT7=
EXTT8=
EXTT9=
EXTT10=
EXTT11=
EXTT12=
EXTT13=
EXTT14=
EXTT15=
EXTT16=
EXTT17=
EXTT18=
EXTT19=
EXTT20=
EXTT21=
PLAYORDER=
